<?xml version="1.0" encoding="utf-8"?>
<!-- Generator: Adobe Illustrator 22.0.0, SVG Export Plug-In . SVG Version: 6.00 Build 0)  -->
<svg version="1.1" id="Layer_1" xmlns="http://www.w3.org/2000/svg" xmlns:xlink="http://www.w3.org/1999/xlink" x="0px" y="0px"
	 viewBox="0 0 87.4 77.4" style="enable-background:new 0 0 87.4 77.4;" xml:space="preserve">
<style type="text/css">
	.st0{fill:#FFFFFF;}
	.st1{fill:#19B8EB;}
	.st2{fill:#28A8DF;}
	.st3{fill:#6DCBF2;}
	.st4{fill:#B6E2F8;}
	.st5{fill:#B1C700;}
</style>
<title>logo-footer0</title>
<g>
	<g>
		<g>
			<path class="st0" d="M13.2,60.3c0.2,0.4,0.4,0.9,0.5,1.3c0.2,0.5,0.2,0.9,0.3,1.3c-0.8,0.3-1.5,0.5-2.2,0.6
				c-0.6,0.1-1.3,0.2-2.1,0.2c-1.3,0-2.4-0.2-3.4-0.6s-1.8-1-2.5-1.8c-0.7-0.8-1.2-1.7-1.5-2.7c-0.4-1-0.5-2.2-0.5-3.4
				c0-1.2,0.2-2.4,0.5-3.4c0.4-1,0.9-2,1.6-2.7c0.7-0.8,1.5-1.3,2.5-1.8c1-0.4,2.1-0.6,3.3-0.6c0.7,0,1.4,0.1,2,0.2
				c0.6,0.1,1.3,0.3,2,0.6c-0.1,0.5-0.1,0.9-0.3,1.3c-0.2,0.4-0.3,0.9-0.5,1.3c-0.5-0.2-1-0.3-1.5-0.4c-0.4-0.1-0.9-0.1-1.5-0.1
				c-1.5,0-2.6,0.5-3.4,1.5c-0.8,1-1.2,2.4-1.2,4.3c0,3.7,1.6,5.7,4.8,5.7c0.6,0,1.1-0.1,1.5-0.1C12.1,60.6,12.6,60.4,13.2,60.3z"/>
			<path class="st0" d="M21.5,55.6c0-0.4-0.1-0.7-0.2-0.9c-0.1-0.2-0.3-0.4-0.5-0.5c-0.2-0.2-0.5-0.2-0.8-0.3
				c-0.3-0.1-0.7-0.1-1-0.1c-0.8,0-1.7,0.2-2.6,0.5c-0.2-0.4-0.4-0.8-0.5-1.1c-0.1-0.4-0.2-0.8-0.2-1.2c0.7-0.2,1.3-0.4,2-0.5
				c0.7-0.1,1.3-0.2,1.9-0.2c1.6,0,2.9,0.4,3.7,1.1c0.9,0.8,1.3,2,1.3,3.7V63c-0.5,0.2-1.2,0.3-2,0.5c-0.8,0.2-1.7,0.2-2.6,0.2
				c-0.8,0-1.5-0.1-2.2-0.2c-0.7-0.2-1.2-0.4-1.7-0.7c-0.5-0.3-0.8-0.7-1.1-1.2s-0.4-1.1-0.4-1.9c0-0.7,0.2-1.3,0.5-1.9
				c0.3-0.5,0.7-0.9,1.2-1.2s1-0.5,1.7-0.6c0.6-0.2,1.2-0.2,1.9-0.2c0.5,0,0.9,0,1.5,0.1V55.6z M21.5,57.9c-0.2-0.1-0.4-0.1-0.6-0.1
				c-0.2,0-0.4-0.1-0.6-0.1c-0.8,0-1.3,0.2-1.8,0.4c-0.4,0.3-0.7,0.7-0.7,1.3c0,0.4,0.1,0.7,0.3,0.9c0.2,0.2,0.4,0.4,0.6,0.5
				c0.3,0.1,0.5,0.2,0.8,0.2c0.3,0,0.5,0.1,0.7,0.1c0.2,0,0.5,0,0.7-0.1c0.2-0.1,0.4-0.1,0.6-0.1L21.5,57.9L21.5,57.9z"/>
			<path class="st0" d="M27.2,53.9h-1.5l-0.1-0.5l4.3-5.5h0.5v3.5h2.8c0.1,0.2,0.1,0.4,0.1,0.6c0,0.2,0,0.4,0,0.6s0,0.4,0,0.6
				s-0.1,0.4-0.1,0.7h-2.7v4.7c0,0.5,0.1,0.9,0.1,1.1c0.1,0.3,0.2,0.5,0.3,0.7c0.2,0.2,0.3,0.3,0.5,0.4c0.2,0.1,0.5,0.1,0.8,0.1
				c0.2,0,0.5,0,0.7-0.1c0.2-0.1,0.4-0.1,0.6-0.1c0.1,0.3,0.2,0.6,0.2,0.9c0.1,0.3,0.1,0.6,0.1,0.8c0,0.2,0,0.3,0,0.4s0,0.2-0.1,0.3
				c-0.7,0.2-1.5,0.3-2.2,0.3c-1.4,0-2.5-0.3-3.2-1c-0.7-0.7-1.1-1.7-1.1-3.2L27.2,53.9L27.2,53.9z"/>
			<path class="st0" d="M37.6,58.4c0.1,0.9,0.4,1.6,1,2c0.6,0.4,1.3,0.6,2.3,0.6c0.5,0,1-0.1,1.6-0.2c0.6-0.1,1.1-0.3,1.6-0.4
				c0.2,0.3,0.3,0.7,0.4,1.1c0.1,0.4,0.2,0.9,0.2,1.4c-1.2,0.5-2.5,0.7-4,0.7c-1.1,0-2.1-0.2-2.9-0.5c-0.8-0.3-1.5-0.7-1.9-1.3
				c-0.5-0.6-0.9-1.2-1.1-2c-0.3-0.8-0.4-1.6-0.4-2.5c0-0.9,0.1-1.7,0.4-2.5c0.3-0.8,0.6-1.5,1.1-2c0.5-0.6,1.1-1,1.8-1.3
				s1.6-0.5,2.5-0.5c0.8,0,1.6,0.2,2.2,0.4c0.6,0.3,1.2,0.7,1.7,1.2c0.5,0.5,0.8,1.1,1,1.8c0.2,0.7,0.4,1.5,0.4,2.2
				c0,0.3,0,0.6-0.1,0.9c0,0.3-0.1,0.5-0.1,0.7h-7.7V58.4z M42.3,56.1c-0.1-0.7-0.3-1.3-0.6-1.8c-0.4-0.5-0.9-0.7-1.6-0.7
				c-0.8,0-1.3,0.2-1.8,0.6c-0.4,0.4-0.6,1-0.7,1.8H42.3z"/>
			<path class="st0" d="M54.4,46.5c0.3-0.1,0.6-0.1,0.8-0.1c0.3,0,0.5,0,0.8,0c0.3,0,0.5,0,0.8,0c0.3,0,0.6,0.1,0.8,0.1V63
				c-0.7,0.2-1.5,0.4-2.2,0.5c-0.7,0.1-1.7,0.2-2.7,0.2c-0.8,0-1.6-0.1-2.3-0.3c-0.7-0.2-1.4-0.6-2-1c-0.6-0.5-1-1.1-1.3-1.9
				c-0.3-0.8-0.5-1.7-0.5-2.8c0-0.9,0.2-1.7,0.4-2.5c0.3-0.8,0.7-1.5,1.2-2c0.5-0.6,1.2-1,1.9-1.3c0.8-0.3,1.6-0.5,2.5-0.5
				c0.3,0,0.6,0,0.9,0.1c0.3,0,0.6,0.1,0.9,0.2L54.4,46.5L54.4,46.5z M54.4,53.9c-0.3-0.1-0.6-0.1-0.7-0.2c-0.2,0-0.4-0.1-0.7-0.1
				c-0.5,0-0.9,0.1-1.3,0.3c-0.4,0.2-0.7,0.5-0.9,0.8c-0.3,0.4-0.4,0.8-0.5,1.2C50,56.6,50,57.1,50,57.6c0,0.6,0.1,1.1,0.2,1.6
				c0.2,0.4,0.4,0.8,0.6,1c0.3,0.3,0.6,0.5,0.9,0.6c0.4,0.1,0.8,0.2,1.2,0.2c0.3,0,0.5,0,0.7-0.1c0.2,0,0.5-0.1,0.7-0.2V53.9z"/>
			<path class="st0" d="M60.1,51.5c0.2-0.1,0.5-0.1,0.7-0.1c0.2,0,0.4-0.1,0.7-0.1c0.2,0,0.5,0,0.7,0.1c0.2,0.1,0.5,0.1,0.7,0.1
				c0.1,0.1,0.1,0.2,0.1,0.3c0.1,0.2,0.1,0.3,0.1,0.5c0.1,0.2,0.1,0.3,0.1,0.5c0,0.2,0.1,0.3,0.1,0.4c0.4-0.5,0.8-0.9,1.2-1.3
				c0.5-0.4,1.1-0.6,1.9-0.6c0.2,0,0.3,0,0.5,0c0.2,0,0.4,0.1,0.4,0.1c0.1,0.2,0.1,0.3,0.1,0.5c0,0.2,0,0.4,0,0.6
				c0,0.3,0,0.6-0.1,0.8c0,0.3-0.1,0.6-0.1,0.9c-0.2-0.1-0.4-0.1-0.6-0.1c-0.2,0-0.3,0-0.4,0c-0.3,0-0.6,0.1-0.9,0.1
				c-0.3,0.1-0.6,0.2-0.9,0.4c-0.3,0.2-0.5,0.6-0.7,1c-0.2,0.5-0.3,1.1-0.3,1.9v5.7c-0.3,0.1-0.6,0.1-0.8,0.1c-0.3,0-0.6,0-0.8,0
				c-0.3,0-0.5,0-0.8,0c-0.3,0-0.6-0.1-0.8-0.1L60.1,51.5L60.1,51.5z"/>
			<path class="st0" d="M74.4,55.6c0-0.4-0.1-0.7-0.2-0.9c-0.1-0.2-0.3-0.4-0.5-0.5c-0.2-0.2-0.5-0.2-0.8-0.3
				c-0.3-0.1-0.7-0.1-1-0.1c-0.8,0-1.7,0.2-2.6,0.5c-0.2-0.4-0.4-0.8-0.5-1.1c-0.1-0.4-0.2-0.8-0.2-1.2c0.7-0.2,1.3-0.4,2-0.5
				s1.3-0.2,1.9-0.2c1.6,0,2.9,0.4,3.7,1.1c0.9,0.8,1.3,2,1.3,3.7V63c-0.5,0.2-1.2,0.3-2,0.5c-0.8,0.2-1.7,0.2-2.6,0.2
				c-0.8,0-1.5-0.1-2.2-0.2c-0.7-0.2-1.2-0.4-1.7-0.7c-0.5-0.3-0.8-0.7-1.1-1.2s-0.4-1.1-0.4-1.9c0-0.7,0.2-1.3,0.5-1.9
				c0.3-0.5,0.7-0.9,1.2-1.2c0.5-0.3,1-0.5,1.7-0.6c0.6-0.2,1.2-0.2,1.9-0.2c0.5,0,0.9,0,1.5,0.1V55.6z M74.4,57.9
				c-0.2-0.1-0.4-0.1-0.6-0.1c-0.2,0-0.4-0.1-0.6-0.1c-0.8,0-1.3,0.2-1.8,0.4c-0.4,0.3-0.7,0.7-0.7,1.3c0,0.4,0.1,0.7,0.3,0.9
				c0.2,0.2,0.4,0.4,0.6,0.5c0.3,0.1,0.5,0.2,0.8,0.2c0.3,0,0.5,0.1,0.7,0.1c0.2,0,0.5,0,0.7-0.1C74,61,74.2,61,74.4,61L74.4,57.9
				L74.4,57.9z"/>
			<path class="st0" d="M79.7,46.5c0.6-0.1,1.1-0.2,1.7-0.2c0.5,0,1,0.1,1.6,0.2v12.1c0,0.5,0.1,0.9,0.1,1.1
				c0.1,0.3,0.2,0.5,0.3,0.7c0.1,0.2,0.3,0.3,0.5,0.3c0.2,0.1,0.4,0.1,0.7,0.1c0.1,0,0.3,0,0.4,0s0.3-0.1,0.4-0.1
				c0.2,0.6,0.3,1.2,0.3,1.9c0,0.1,0,0.3,0,0.3c0,0.1,0,0.2-0.1,0.3c-0.3,0.1-0.5,0.2-0.9,0.2c-0.4,0.1-0.7,0.1-0.9,0.1
				c-1.2,0-2.1-0.3-2.9-1c-0.7-0.7-1.1-1.7-1.1-3.2L79.7,46.5L79.7,46.5z"/>
		</g>
	</g>
	<g>
		<path class="st0" d="M73.5,17.7L73.5,17.7c-0.6-5.6-4.4-8.1-7.6-8.1c-0.9,0-1.9,0.2-2.7,0.6l-2.3,1.2l-0.1-1.5V9.9
			C60.2,5.2,57,3,54.2,3c-0.8,0-1.7,0.2-2.3,0.6l-7.8,3.9l-7.8-3.9C35.6,3.2,34.8,3,34,3c-2.8,0-6.1,2.2-6.6,6.9l-0.2,1.9l-3.1-1.5
			c-0.8-0.4-1.7-0.6-2.7-0.6c-3.2,0-7,2.5-7.6,8L13,27.5v0.2c-0.2,6.3,5.5,13.7,15.4,15.3c0.6,0.2,1.3,0.2,2,0.3h25.5h0.9h0.2
			c0.7-0.1,1.3-0.2,2-0.3c10-1.6,15.7-9,15.5-15.4L73.5,17.7z"/>
		<g>
			<path class="st1" d="M26.3,28.8L41,21.4l-17.9-9c-2.3-1.2-6.3,0.4-6.8,5.5l-0.8,9.7c-0.1,3.7,2.3,8,6.9,10.7
				C20.8,34.8,23.1,30.4,26.3,28.8z"/>
		</g>
		<path class="st2" d="M71.1,17.9l0.8,9.7c0.2,5.7-5.7,12.9-16.1,13.2H30.6c-2.7-0.2-4.9-1.1-6-3.2c-1.2-2.3,0.5-5.5,2.9-6.7
			l36.8-18.6C66.6,11.2,70.6,12.8,71.1,17.9z"/>
		<g>
			<path class="st3" d="M43.7,20l14.9-7.5l-0.2-2.4c-0.5-4.1-3.6-5.4-5.4-4.5L34,15.2l2.7,1.4L43.7,20z"/>
		</g>
		<g>
			<path class="st4" d="M41.3,8.8l-6.2-3.1c-1.9-0.9-5,0.3-5.4,4.5l-0.2,2.7l1.9,0.9L41.3,8.8z"/>
		</g>
	</g>
	<g>
		<path class="st0" d="M20.4,66.7c0.1,0,0.1,0,0.1,0c0.1,0,0.1,0,0.2,0c0.1,0,0.1,0,0.2,0c0.1,0,0.1,0,0.1,0l1.5,4.5
			c0,0-0.1,0-0.1,0s-0.1,0-0.1,0c-0.1,0-0.1,0-0.1,0c-0.1,0-0.1,0-0.1,0l-0.4-1.1h-1.8l-0.4,1.1c-0.1,0-0.1,0-0.1,0
			c-0.1,0-0.1,0-0.1,0c-0.1,0-0.1,0-0.1,0c-0.1,0-0.1,0-0.1,0L20.4,66.7z M21.4,69.7l-0.8-2.5l-0.8,2.5H21.4z"/>
		<path class="st0" d="M23.3,66.6c0,0,0.1,0,0.1,0c0.1,0,0.1,0,0.1,0c0,0,0.1,0,0.1,0s0.1,0,0.1,0v3.8c0,0.1,0,0.2,0.1,0.3
			c0,0.1,0.1,0.1,0.1,0.1c0.1,0.1,0.1,0.1,0.1,0.1c0.1,0,0.1,0,0.1,0c0.1,0,0.1,0,0.2,0c0.1,0,0.1,0,0.1,0c0,0.1,0.1,0.1,0.1,0.2
			c0,0.1,0,0.1,0,0.2c-0.1,0-0.1,0.1-0.2,0.1c-0.1,0-0.2,0-0.2,0c-0.1,0-0.2,0-0.3-0.1c-0.1,0-0.2-0.1-0.2-0.1
			c-0.1-0.1-0.1-0.1-0.2-0.2c-0.1-0.1-0.1-0.2-0.1-0.4V66.6z"/>
		<path class="st0" d="M25.5,68.4H25c0,0,0-0.1,0-0.1c0-0.1,0-0.1,0-0.1s0-0.1,0-0.1c0-0.1,0-0.1,0-0.1h0.5v-0.6l0.4-0.4l0,0v1h0.8
			v0.1c0,0.1,0,0.1,0,0.1c0,0.1,0,0.1,0,0.1c0,0.1,0,0.1,0,0.1h-0.8v2.1c0,0.1,0,0.2,0.1,0.3c0.1,0.1,0.1,0.1,0.1,0.2
			c0.1,0.1,0.1,0.1,0.2,0.1s0.1,0,0.2,0c0.2,0,0.3,0,0.4-0.1c0.1,0.1,0.1,0.2,0.1,0.4c-0.2,0.1-0.3,0.1-0.5,0.1
			c-0.3,0-0.4-0.1-0.6-0.2c-0.2-0.1-0.2-0.3-0.2-0.6L25.5,68.4L25.5,68.4z"/>
		<path class="st0" d="M29.5,69.1c0-0.3-0.1-0.5-0.2-0.6c-0.1-0.1-0.3-0.2-0.6-0.2c-0.2,0-0.3,0-0.5,0.1c-0.2,0-0.3,0.1-0.4,0.1
			c0-0.1-0.1-0.1-0.1-0.2c0-0.1,0-0.2,0-0.2c0.1-0.1,0.3-0.1,0.4-0.1c0.2-0.1,0.3-0.1,0.5-0.1c0.4,0,0.7,0.1,0.9,0.3
			c0.2,0.2,0.3,0.5,0.3,0.8v2.1c-0.2,0.1-0.3,0.1-0.5,0.1c-0.2,0.1-0.4,0.1-0.6,0.1c-0.4,0-0.7-0.1-0.9-0.2
			c-0.2-0.2-0.3-0.4-0.3-0.7c0-0.2,0.1-0.3,0.1-0.5c0.1-0.2,0.2-0.3,0.3-0.3c0.1-0.1,0.3-0.2,0.4-0.2c0.2-0.1,0.3-0.1,0.5-0.1
			c0.2,0,0.3,0,0.4,0s0.2,0,0.3,0.1L29.5,69.1L29.5,69.1z M29.5,69.7c-0.1,0-0.2,0-0.3-0.1c-0.1,0-0.2,0-0.3,0
			c-0.3,0-0.6,0.1-0.7,0.2C28.1,69.9,28,70,28,70.3c0,0.2,0.1,0.3,0.1,0.3c0.1,0.1,0.1,0.2,0.2,0.2c0.1,0.1,0.2,0.1,0.3,0.1
			c0.1,0,0.2,0,0.3,0s0.3,0,0.4,0s0.2-0.1,0.3-0.1C29.5,70.8,29.5,69.7,29.5,69.7z"/>
		<path class="st0" d="M33.2,66.7c0.1,0,0.1,0,0.2,0c0.1,0,0.2,0,0.3,0c0.1,0,0.2,0,0.3,0c0.1,0,0.2,0,0.3,0c0.3,0,0.5,0,0.7,0.1
			c0.2,0.1,0.4,0.1,0.5,0.3c0.2,0.1,0.3,0.3,0.3,0.4c0.1,0.2,0.1,0.4,0.1,0.6c0,0.3-0.1,0.5-0.2,0.7c-0.1,0.2-0.2,0.3-0.4,0.5
			c-0.2,0.1-0.3,0.2-0.5,0.3c-0.2,0.1-0.4,0.1-0.6,0.1c-0.1,0-0.2,0-0.3,0c-0.1,0-0.2,0-0.3,0v1.8c-0.1,0-0.1,0-0.1,0
			c-0.1,0-0.1,0-0.1,0c-0.1,0-0.1,0-0.1,0c-0.1,0-0.1,0-0.1,0L33.2,66.7L33.2,66.7z M33.6,69c0.1,0,0.1,0,0.1,0c0.1,0,0.1,0,0.1,0
			c0.1,0,0.1,0,0.1,0s0.1,0,0.2,0c0.2,0,0.3,0,0.4-0.1c0.2,0,0.3-0.1,0.4-0.2c0.1-0.1,0.2-0.2,0.3-0.3c0.1-0.2,0.1-0.3,0.1-0.6
			c0-0.2-0.1-0.3-0.1-0.5c-0.1-0.1-0.2-0.2-0.3-0.3c-0.1-0.1-0.2-0.1-0.4-0.2C34.4,67,34.2,67,34,67c-0.1,0-0.2,0-0.3,0
			c-0.1,0-0.2,0-0.2,0L33.6,69L33.6,69z"/>
		<path class="st0" d="M38.5,69.1c0-0.3-0.1-0.5-0.2-0.6c-0.1-0.1-0.3-0.2-0.6-0.2c-0.2,0-0.3,0-0.5,0.1c-0.2,0-0.3,0.1-0.4,0.1
			c0-0.1-0.1-0.1-0.1-0.2c0-0.1,0-0.2,0-0.2c0.1-0.1,0.3-0.1,0.4-0.1c0.2,0,0.3-0.1,0.5-0.1c0.4,0,0.7,0.1,0.9,0.3
			c0.2,0.2,0.3,0.5,0.3,0.8v2.1c-0.2,0.1-0.3,0.1-0.5,0.1c-0.2,0.1-0.4,0.1-0.6,0.1c-0.4,0-0.7-0.1-0.9-0.2
			c-0.2-0.2-0.3-0.4-0.3-0.7c0-0.2,0.1-0.3,0.1-0.5c0.1-0.2,0.2-0.3,0.3-0.3c0.1-0.1,0.3-0.2,0.4-0.2c0.2-0.1,0.3-0.1,0.5-0.1
			c0.2,0,0.3,0,0.4,0c0.1,0,0.2,0,0.3,0.1L38.5,69.1L38.5,69.1z M38.5,69.7c-0.1,0-0.2,0-0.3-0.1c-0.1,0-0.2,0-0.3,0
			c-0.3,0-0.6,0.1-0.7,0.2c-0.2,0.1-0.3,0.3-0.3,0.5c0,0.2,0.1,0.3,0.1,0.3c0.1,0.1,0.1,0.2,0.2,0.2c0.1,0.1,0.2,0.1,0.3,0.1
			c0.1,0,0.2,0,0.3,0c0.1,0,0.3,0,0.4,0c0.1,0,0.2-0.1,0.3-0.1C38.5,70.8,38.5,69.7,38.5,69.7z"/>
		<path class="st0" d="M40.3,68.4h-0.5c0,0,0-0.1,0-0.1c0-0.1,0-0.1,0-0.1s0-0.1,0-0.1c0-0.1,0-0.1,0-0.1h0.5v-0.6l0.4-0.4l0,0v1
			h0.8v0.1c0,0.1,0,0.1,0,0.1c0,0.1,0,0.1,0,0.1c0,0.1,0,0.1,0,0.1h-0.8v2.1c0,0.1,0,0.2,0.1,0.3c0.1,0.1,0.1,0.1,0.1,0.2
			c0.1,0.1,0.1,0.1,0.2,0.1s0.1,0,0.2,0c0.2,0,0.3,0,0.4-0.1c0.1,0.1,0.1,0.2,0.1,0.4c-0.2,0.1-0.3,0.1-0.5,0.1
			c-0.3,0-0.4-0.1-0.6-0.2c-0.2-0.1-0.2-0.3-0.2-0.6L40.3,68.4L40.3,68.4z"/>
		<path class="st0" d="M44.3,69.1c0-0.3-0.1-0.5-0.2-0.6c-0.1-0.1-0.3-0.2-0.6-0.2c-0.2,0-0.3,0-0.5,0.1c-0.2,0-0.3,0.1-0.4,0.1
			c0-0.1-0.1-0.1-0.1-0.2c0-0.1,0-0.2,0-0.2c0.1-0.1,0.3-0.1,0.4-0.1c0.2,0,0.3-0.1,0.5-0.1c0.4,0,0.7,0.1,0.9,0.3
			c0.2,0.2,0.3,0.5,0.3,0.8v2.1c-0.2,0.1-0.3,0.1-0.5,0.1c-0.2,0.1-0.4,0.1-0.6,0.1c-0.4,0-0.7-0.1-0.9-0.2
			c-0.2-0.2-0.3-0.4-0.3-0.7c0-0.2,0.1-0.3,0.1-0.5c0.1-0.2,0.2-0.3,0.3-0.3c0.1-0.1,0.3-0.2,0.4-0.2c0.2-0.1,0.3-0.1,0.5-0.1
			c0.2,0,0.3,0,0.4,0c0.1,0,0.2,0,0.3,0.1L44.3,69.1L44.3,69.1z M44.3,69.7c-0.1,0-0.2,0-0.3-0.1c-0.1,0-0.2,0-0.3,0
			c-0.3,0-0.6,0.1-0.7,0.2c-0.2,0.1-0.3,0.3-0.3,0.5c0,0.2,0,0.3,0.1,0.3c0.1,0.1,0.1,0.2,0.2,0.2c0.1,0.1,0.2,0.1,0.3,0.1
			c0.1,0,0.2,0,0.3,0c0.1,0,0.3,0,0.4,0c0.1,0,0.2-0.1,0.3-0.1L44.3,69.7L44.3,69.7z"/>
		<path class="st0" d="M47.7,70.9c0.4,0,0.6,0.1,0.8,0.2c0.2,0.2,0.2,0.3,0.2,0.6c0,0.2-0.1,0.3-0.1,0.4c-0.1,0.1-0.2,0.3-0.4,0.3
			c-0.2,0.1-0.3,0.2-0.5,0.2c-0.2,0.1-0.4,0.1-0.7,0.1c-0.2,0-0.4,0-0.5-0.1c-0.2-0.1-0.3-0.1-0.4-0.2c-0.1-0.1-0.2-0.2-0.3-0.3
			c-0.1-0.1-0.1-0.3-0.1-0.4c0-0.2,0.1-0.3,0.2-0.5c0.1-0.2,0.2-0.3,0.4-0.3c-0.1-0.1-0.2-0.1-0.2-0.2c-0.1-0.1-0.1-0.2-0.1-0.3
			c0-0.2,0.1-0.3,0.1-0.4c0.1-0.1,0.2-0.2,0.3-0.3c-0.2-0.1-0.3-0.2-0.4-0.4c-0.1-0.2-0.2-0.3-0.2-0.6c0-0.2,0-0.3,0.1-0.4
			c0.1-0.2,0.1-0.3,0.2-0.4c0.1-0.1,0.2-0.2,0.4-0.3c0.2-0.1,0.3-0.1,0.5-0.1c0.2,0,0.3,0,0.5,0.1c0.2,0.1,0.3,0.1,0.4,0.2
			c0.1,0,0.1-0.1,0.2-0.1c0.1,0,0.2-0.1,0.2-0.1s0.2-0.1,0.2-0.1c0.1,0,0.2,0,0.2,0c0,0.1,0,0.2,0,0.2c0,0.1,0,0.2,0,0.2H48
			c0.1,0.1,0.1,0.2,0.2,0.3c0.1,0.1,0.1,0.2,0.1,0.3c0,0.2-0.1,0.3-0.1,0.5c-0.1,0.2-0.2,0.3-0.3,0.4c-0.1,0.1-0.3,0.2-0.4,0.2
			C47.3,70,47.2,70,47,70s-0.3,0-0.5-0.1c-0.1,0.1-0.2,0.2-0.3,0.2c-0.1,0.1-0.1,0.2-0.1,0.2s0,0.1,0,0.1c0,0.1,0.1,0.1,0.1,0.1
			c0.1,0.1,0.1,0.1,0.2,0.1c0.1,0,0.2,0.1,0.3,0.1L47.7,70.9z M46.8,71.3c-0.2,0-0.4,0.1-0.5,0.2c-0.1,0.1-0.2,0.3-0.2,0.5
			c0,0.1,0,0.2,0.1,0.3c0.1,0.1,0.1,0.1,0.2,0.2c0.1,0.1,0.2,0.1,0.3,0.1c0.1,0,0.2,0,0.4,0c0.4,0,0.7-0.1,0.9-0.2
			c0.2-0.2,0.3-0.3,0.3-0.5c0-0.2-0.1-0.3-0.2-0.3c-0.1-0.1-0.3-0.1-0.5-0.1L46.8,71.3z M46.4,69.1c0,0.2,0.1,0.4,0.2,0.5
			c0.1,0.2,0.3,0.2,0.6,0.2c0.3,0,0.5-0.1,0.6-0.2c0.1-0.2,0.2-0.3,0.2-0.5s-0.1-0.4-0.2-0.5c-0.1-0.2-0.3-0.2-0.6-0.2
			c-0.3,0-0.5,0.1-0.6,0.2C46.5,68.7,46.4,68.8,46.4,69.1z"/>
		<path class="st0" d="M50.9,71.3c-0.3,0-0.5-0.1-0.6-0.1c-0.2-0.1-0.3-0.2-0.5-0.4c-0.1-0.2-0.2-0.3-0.3-0.5s-0.1-0.4-0.1-0.7
			c0-0.2,0.1-0.5,0.1-0.7c0.1-0.2,0.2-0.4,0.3-0.5c0.1-0.2,0.3-0.3,0.5-0.4c0.2-0.1,0.4-0.1,0.6-0.1c0.3,0,0.4,0.1,0.6,0.1
			c0.2,0.1,0.3,0.2,0.4,0.4c0.1,0.2,0.2,0.3,0.3,0.5c0.1,0.2,0.1,0.4,0.1,0.7c0,0.2-0.1,0.5-0.1,0.7c-0.1,0.2-0.2,0.4-0.3,0.5
			c-0.1,0.2-0.3,0.3-0.4,0.4C51.3,71.2,51.1,71.3,50.9,71.3z M50.9,70.9c0.3,0,0.6-0.1,0.7-0.4c0.2-0.2,0.3-0.6,0.3-0.9
			c0-0.4-0.1-0.7-0.3-0.9s-0.4-0.4-0.7-0.4c-0.3,0-0.6,0.1-0.7,0.4c-0.2,0.2-0.3,0.6-0.3,0.9c0,0.4,0.1,0.7,0.3,0.9
			C50.3,70.8,50.6,70.9,50.9,70.9z"/>
		<path class="st0" d="M53.5,68c0.1,0,0.1,0,0.1,0c0.1,0,0.1,0,0.1,0c0.1,0,0.1,0,0.1,0s0.1,0,0.1,0c0,0.1,0,0.2,0,0.3
			c0,0.1,0,0.2,0,0.3c0.1-0.1,0.1-0.2,0.2-0.2c0.1-0.1,0.2-0.2,0.2-0.2c0.1-0.1,0.2-0.1,0.3-0.2C54.7,68,54.9,68,55,68
			c0.4,0,0.6,0.1,0.8,0.3s0.3,0.5,0.3,0.9v2c0,0-0.1,0-0.1,0s-0.1,0-0.1,0c0,0-0.1,0-0.1,0c-0.1,0-0.1,0-0.1,0v-1.9
			c0-0.4-0.1-0.6-0.2-0.8c-0.1-0.2-0.3-0.2-0.5-0.2c-0.2,0-0.3,0.1-0.4,0.1c-0.1,0.1-0.3,0.2-0.3,0.3c-0.1,0.1-0.2,0.3-0.2,0.4
			s-0.1,0.4-0.1,0.6v1.6c0,0-0.1,0-0.1,0s-0.1,0-0.1,0s-0.1,0-0.1,0c-0.1,0-0.1,0-0.1,0S53.5,68,53.5,68z"/>
		<path class="st0" d="M57.6,68.4h-0.4v-0.1c0-0.1,0-0.1,0-0.1c0-0.1,0-0.1,0-0.1c0-0.1,0-0.1,0-0.1H58v3.2c0,0-0.1,0-0.1,0
			c-0.1,0-0.1,0-0.1,0c0,0-0.1,0-0.1,0c-0.1,0-0.1,0-0.1,0S57.6,68.4,57.6,68.4z M57.3,67.3c0-0.1,0-0.1,0-0.2c0-0.1,0-0.1,0-0.2
			c0-0.1,0-0.1,0-0.1c0-0.1,0-0.1,0-0.1c0.1,0,0.1,0,0.2,0s0.1,0,0.2,0s0.1,0,0.1,0s0.1,0,0.1,0c0,0.1,0,0.1,0,0.1
			c0,0.1,0,0.1,0,0.1c0,0.1,0,0.1,0,0.2c0,0.1,0,0.1,0,0.2c-0.1,0-0.1,0-0.1,0s-0.1,0-0.1,0c-0.1,0-0.1,0-0.2,0
			C57.4,67.3,57.3,67.3,57.3,67.3z"/>
		<path class="st0" d="M61.1,69.1c0-0.3-0.1-0.5-0.2-0.6c-0.1-0.1-0.3-0.2-0.6-0.2c-0.2,0-0.3,0-0.5,0.1c-0.2,0-0.3,0.1-0.4,0.1
			c0-0.1-0.1-0.1-0.1-0.2c0-0.1,0-0.2,0-0.2c0.1-0.1,0.3-0.1,0.4-0.1c0.2,0,0.3-0.1,0.5-0.1c0.4,0,0.7,0.1,0.9,0.3s0.3,0.5,0.3,0.8
			v2.1c-0.2,0.1-0.3,0.1-0.5,0.1c-0.2,0.1-0.4,0.1-0.6,0.1c-0.4,0-0.7-0.1-0.9-0.2c-0.2-0.2-0.3-0.4-0.3-0.7c0-0.2,0.1-0.3,0.1-0.5
			c0.1-0.2,0.2-0.3,0.3-0.3c0.1-0.1,0.3-0.2,0.4-0.2c0.2-0.1,0.3-0.1,0.5-0.1c0.2,0,0.3,0,0.4,0s0.2,0,0.3,0.1L61.1,69.1L61.1,69.1z
			 M61.1,69.7c-0.1,0-0.2,0-0.3-0.1c-0.1,0-0.2,0-0.3,0c-0.3,0-0.6,0.1-0.7,0.2c-0.2,0.1-0.3,0.3-0.3,0.5c0,0.2,0,0.3,0.1,0.3
			c0.1,0.1,0.1,0.2,0.2,0.2c0.1,0.1,0.2,0.1,0.3,0.1c0.1,0,0.2,0,0.3,0c0.1,0,0.3,0,0.4,0s0.2-0.1,0.3-0.1L61.1,69.7L61.1,69.7z"/>
	</g>
	<path class="st5" d="M68.1,69.1l-3.5-2l-3.5-2c-0.5-0.3-1.1,0.1-1.1,0.6v1h1.8c0.7,0,1.2,0.5,1.2,1.2v3.6c0,0.7-0.5,1.2-1.2,1.2H60
		v1c0,0.6,0.6,0.9,1.1,0.6l3.5-2l3.5-2C68.5,70,68.5,69.3,68.1,69.1z"/>
</g>
</svg>
